<svg width="26" height="26" viewBox="0 0 26 26" fill="none" xmlns="http://www.w3.org/2000/svg">
<g clip-path="url(#clip0_2058_694)">
<path fill-rule="evenodd" clip-rule="evenodd" d="M10.4016 1.30078C9.6836 1.30078 9.10157 1.88282 9.10157 2.60078H6.31218C5.04258 2.60078 3.95154 3.4982 3.72397 4.73568L2.72881 10.1474C2.55083 11.1153 2.55963 12.1078 2.75476 13.0724L4.42118 21.3106C4.6286 22.3361 5.42938 23.1192 6.42753 23.3388V23.4008C6.42753 24.1188 7.0162 24.7008 7.74234 24.7008C8.46849 24.7008 9.05714 24.1188 9.05714 23.4008H10.372V22.1008C10.372 20.6648 11.5493 19.5008 13.0016 19.5008C14.4539 19.5008 15.6312 20.6648 15.6312 22.1008V23.4008H16.946C16.946 24.1188 17.5347 24.7008 18.2608 24.7008C18.9869 24.7008 19.5755 24.1188 19.5755 23.4008V23.3388C20.5738 23.1192 21.3745 22.3361 21.582 21.3106L23.2484 13.0724C23.4436 12.1078 23.4523 11.1153 23.2743 10.1474L22.2791 4.73568C22.0518 3.49894 20.962 2.60078 19.6916 2.60078H16.9016C16.9016 1.88282 16.3196 1.30078 15.6016 1.30078H10.4016ZM5.77013 14.9508C5.77013 14.2328 6.35879 13.6508 7.08494 13.6508C7.81108 13.6508 8.39975 14.2328 8.39975 14.9508C8.39975 15.6688 7.81108 16.2508 7.08494 16.2508C6.35879 16.2508 5.77013 15.6688 5.77013 14.9508ZM18.9183 13.6508C18.1921 13.6508 17.6034 14.2328 17.6034 14.9508C17.6034 15.6688 18.1921 16.2508 18.9183 16.2508C19.6443 16.2508 20.2329 15.6688 20.2329 14.9508C20.2329 14.2328 19.6443 13.6508 18.9183 13.6508ZM13.0016 14.9508C11.9123 14.9508 11.0294 15.8239 11.0294 16.9008C11.0294 17.9777 11.9123 18.8508 13.0016 18.8508C14.0908 18.8508 14.9738 17.9777 14.9738 16.9008C14.9738 15.8239 14.0908 14.9508 13.0016 14.9508ZM5.316 10.6125L6.11574 6.268C6.2295 5.64997 6.77395 5.20078 7.40929 5.20078H18.5943C19.2297 5.20078 19.7742 5.65005 19.8879 6.26815L20.6872 10.6125C20.7973 11.2118 20.2799 11.7008 19.6638 11.7008H6.33936C5.72331 11.7008 5.2058 11.2118 5.316 10.6125Z" fill="#20294C"/>
<path d="M14.3171 22.1008C14.3171 21.3828 13.7285 20.8008 13.0023 20.8008C12.2762 20.8008 11.6875 21.3828 11.6875 22.1008V24.7008C11.6875 25.4188 12.2762 26.0008 13.0023 26.0008C13.7285 26.0008 14.3171 25.4188 14.3171 24.7008V22.1008Z" fill="#20294C"/>
</g>
<defs>
<clipPath id="clip0_2058_694">
<rect width="26" height="26" fill="white"/>
</clipPath>
</defs>
</svg>
