<svg width="26" height="26" viewBox="0 0 26 26" fill="none" xmlns="http://www.w3.org/2000/svg">
<path d="M8.45078 16.8996C8.80976 16.8996 9.10078 16.6085 9.10078 16.2496C9.10078 15.8905 8.80976 15.5996 8.45078 15.5996C8.0918 15.5996 7.80078 15.8905 7.80078 16.2496C7.80078 16.6085 8.0918 16.8996 8.45078 16.8996Z" fill="#20294C"/>
<path d="M11.6984 16.2496C11.6984 16.6085 11.4074 16.8996 11.0484 16.8996C10.6895 16.8996 10.3984 16.6085 10.3984 16.2496C10.3984 15.8905 10.6895 15.5996 11.0484 15.5996C11.4074 15.5996 11.6984 15.8905 11.6984 16.2496Z" fill="#20294C"/>
<path d="M9.75156 19.4992C10.1105 19.4992 10.4016 19.2081 10.4016 18.8492C10.4016 18.4902 10.1105 18.1992 9.75156 18.1992C9.39258 18.1992 9.10156 18.4902 9.10156 18.8492C9.10156 19.2081 9.39258 19.4992 9.75156 19.4992Z" fill="#20294C"/>
<path fill-rule="evenodd" clip-rule="evenodd" d="M6.499 24.7V24.6639C4.47562 24.4023 2.599 22.7474 2.599 20.5061V13.4863C1.76763 12.4969 1.19914 11.1334 1.49913 9.65452C2.63521 4.0539 8.19993 1.55209 13.224 1.62662C18.256 1.70127 23.7154 4.37727 24.5843 10.1382C24.7866 11.4792 24.2072 12.6952 23.399 13.5213V20.5061C23.399 22.9522 21.1637 24.7 18.9419 24.7H15.0578H15.0419H6.499ZM4.04723 10.1714C4.7399 6.75674 7.93007 4.67517 11.7029 4.28998C13.8294 4.29086 15.285 5.01422 16.2743 6.07269C17.2919 7.16142 17.9133 8.71203 18.1277 10.4913C18.1743 10.8776 18.0132 11.3374 17.6129 11.7307C17.1562 12.1795 16.899 12.7928 16.899 13.433V20.5061C16.899 21.2538 16.1078 22.094 15.053 22.1H7.05615C5.99584 22.1 5.199 21.2564 5.199 20.5061V13.0072C5.199 12.6394 5.05121 12.2869 4.78884 12.0291C4.1733 11.4243 3.93381 10.7306 4.04723 10.1714Z" fill="#20294C"/>
</svg>
