<svg width="28" height="40" viewBox="0 0 28 40" fill="none" xmlns="http://www.w3.org/2000/svg">
<g clip-path="url(#clip0_2058_841)">
<mask id="mask0_2058_841" style="mask-type:luminance" maskUnits="userSpaceOnUse" x="0" y="6" width="28" height="28">
<path d="M0 6H28V34H0V6Z" fill="white"/>
</mask>
<g mask="url(#mask0_2058_841)">
<path fill-rule="evenodd" clip-rule="evenodd" d="M15.6668 28.8026C17.0768 28.4261 18.3701 27.7025 19.4287 26.698C20.4873 25.6934 21.2776 24.4398 21.7274 23.0514C21.7689 22.9189 21.8364 22.7959 21.9258 22.6896C22.0152 22.5833 22.1248 22.4958 22.2483 22.4321C22.3717 22.3685 22.5066 22.33 22.6451 22.3188C22.7835 22.3077 22.9228 22.3241 23.0549 22.3671C23.1869 22.4102 23.3091 22.4791 23.4144 22.5697C23.5197 22.6603 23.6059 22.7709 23.6681 22.8951C23.7304 23.0193 23.7673 23.1546 23.7769 23.2932C23.7864 23.4318 23.7684 23.5709 23.7238 23.7024C22.9546 26.0701 21.3946 28.1012 19.3055 29.4551C17.2163 30.809 14.7252 31.4033 12.2498 31.1384C9.77447 30.8734 7.46554 29.7652 5.71033 27.9998C3.95512 26.2343 2.86041 23.919 2.60981 21.4422C2.35922 18.9653 2.968 16.4776 4.33402 14.3964C5.70004 12.3152 7.74022 10.767 10.1123 10.0116C12.4844 9.25617 15.0442 9.33945 17.3621 10.2475C19.6801 11.1555 21.6154 12.833 22.8432 14.9986L23.0896 11.9928C23.1139 11.7166 23.2465 11.4612 23.4585 11.2823C23.6705 11.1035 23.9446 11.0158 24.221 11.0384C24.4974 11.0609 24.7536 11.1919 24.9338 11.4027C25.114 11.6135 25.2034 11.8871 25.1826 12.1636L24.6478 18.7156C24.6341 18.8825 24.5807 19.0436 24.4921 19.1856C24.4035 19.3277 24.2822 19.4465 24.1384 19.5321C23.9945 19.6177 23.8323 19.6677 23.6652 19.6779C23.4981 19.6881 23.331 19.6581 23.1778 19.5906L17.6646 17.1588C17.5348 17.1057 17.417 17.0271 17.3181 16.9276C17.2192 16.8282 17.1412 16.71 17.0888 16.5799C17.0363 16.4499 17.0104 16.3106 17.0127 16.1704C17.0149 16.0302 17.0452 15.8918 17.1018 15.7635C17.1584 15.6352 17.2401 15.5195 17.3421 15.4233C17.4442 15.3271 17.5644 15.2523 17.6958 15.2033C17.8272 15.1543 17.9671 15.1321 18.1072 15.1381C18.2473 15.1441 18.3848 15.178 18.5116 15.238L21.2304 16.4378C20.4899 14.9573 19.3447 13.7172 17.9276 12.8616C16.5106 12.0059 14.8799 11.5697 13.2249 11.6037C11.5699 11.6377 9.95848 12.1405 8.57778 13.0537C7.19708 13.9668 6.10373 15.2529 5.42469 16.7626C4.74566 18.2722 4.50879 19.9436 4.7416 21.5825C4.97441 23.2214 5.66733 24.7606 6.73992 26.0215C7.81251 27.2823 9.22076 28.213 10.8011 28.7056C12.3815 29.1981 14.0692 29.2323 15.6682 28.804L15.6668 28.8026Z" fill="white"/>
</g>
</g>
<defs>
<clipPath id="clip0_2058_841">
<rect width="28" height="28" fill="white" transform="translate(0 6)"/>
</clipPath>
</defs>
</svg>
