<svg width="26" height="26" viewBox="0 0 26 26" fill="none" xmlns="http://www.w3.org/2000/svg">
<path d="M21.9401 5.553C19.7263 3.34887 16.1373 3.34887 13.9236 5.553L13.0001 6.47249L12.0766 5.55301C9.86295 3.34888 6.27386 3.34888 4.06017 5.55301C1.84649 7.75713 2.3999 11.2128 4.06017 13.5349C5.29318 15.2594 9.62548 19.375 11.7736 21.3791C12.1943 21.7715 12.4046 21.9678 12.6515 22.0465C12.8753 22.1177 13.1249 22.1177 13.3486 22.0465C13.5956 21.9678 13.8058 21.7715 14.2265 21.3791C16.3748 19.375 20.707 15.2594 21.9401 13.5349C23.6003 11.2128 24.1537 7.75713 21.9401 5.553Z" fill="#20294C"/>
</svg>
