<svg width="26" height="26" viewBox="0 0 26 26" fill="none" xmlns="http://www.w3.org/2000/svg">
<g clip-path="url(#clip0_2058_761)">
<path fill-rule="evenodd" clip-rule="evenodd" d="M15.5923 14.6351C12.6586 17.4554 9.12382 20.0464 5.61719 22.0733C8.35802 17.8875 10.5993 13.5082 10.2903 8.36025C10.2656 7.94973 10.1819 7.55559 10.1026 7.1823C9.89079 6.18505 9.7106 5.33675 10.7733 4.72321C11.1505 4.5054 11.5894 4.42703 12.0247 4.44434C14.3586 4.5371 15.7032 3.40868 15.9868 1.27653C16.0222 1.01114 16.1678 0.769109 16.3997 0.635242C16.8508 0.374767 17.4267 0.60745 17.5908 1.1019C18.7393 4.5637 20.7605 8.21212 23.0374 10.9648C22.9131 11.3989 22.5896 11.7716 22.1309 11.9352L22.085 11.9515C21.9971 11.9825 21.9088 12.0137 21.8243 12.0528C21.0346 12.4175 20.2894 12.5762 19.5541 12.7328C18.2653 13.0073 17.0068 13.2753 15.5923 14.6351ZM11.3096 14.4881C11.6574 14.2874 11.7765 13.8427 11.5757 13.4949C11.375 13.1472 10.9303 13.0281 10.5825 13.2288C10.2348 13.4296 10.1156 13.8742 10.3164 14.222C10.5172 14.5697 10.9619 14.689 11.3096 14.4881ZM12.108 11.5085C12.3088 11.8563 12.1896 12.301 11.8419 12.5017C11.4941 12.7025 11.0494 12.5834 10.8487 12.2356C10.6479 11.8879 10.767 11.4432 11.1148 11.2424C11.4625 11.0416 11.9072 11.1608 12.108 11.5085ZM12.3741 10.5153C12.7219 10.3146 12.841 9.86988 12.6403 9.52213C12.4395 9.17439 11.9948 9.05524 11.6471 9.25601C11.2993 9.45678 11.1802 9.90145 11.3809 10.2492C11.5817 10.597 12.0264 10.7161 12.3741 10.5153Z" fill="#20294C"/>
<path d="M4.7721 24.979C4.60132 24.6833 4.57625 24.3564 4.64477 24.0123C5.28915 23.8979 5.8738 23.6044 6.3204 23.3466C9.92543 21.2652 13.5658 18.6 16.5992 15.6841C17.4797 14.8376 18.2434 14.5404 19.0793 14.3306C19.2666 14.2836 19.484 14.2374 19.7232 14.1867C20.4893 14.024 21.4803 13.8136 22.4332 13.3734C22.4527 13.3644 22.4708 13.358 22.5608 13.3259L22.6184 13.3054C23.2311 13.087 23.7233 12.6834 24.0571 12.1816L24.6312 12.8651C24.6577 12.8968 24.6819 12.9306 24.7012 12.9672C25.1126 13.7531 24.7251 14.7155 23.904 15.0083L23.8581 15.0245C23.7702 15.0556 23.6818 15.0869 23.5975 15.1259C22.8077 15.4907 22.0626 15.6493 21.3272 15.8059C20.0383 16.0805 18.7799 16.3484 17.3653 17.7084C14.4252 20.5346 10.8815 23.1309 7.36728 25.1598C6.33555 25.7555 5.36776 26.0108 4.7721 24.979Z" fill="#20294C"/>
</g>
<defs>
<clipPath id="clip0_2058_761">
<rect width="26" height="26" fill="white"/>
</clipPath>
</defs>
</svg>
