<svg width="26" height="26" viewBox="0 0 26 26" fill="none" xmlns="http://www.w3.org/2000/svg">
<g clip-path="url(#clip0_2058_733)">
<path d="M6.78906 13.0008C12.0941 13.0008 16.3946 7.76251 16.3946 1.30078C16.3946 7.76251 20.6951 13.0008 26.0002 13.0008C20.6951 13.0008 16.3946 18.239 16.3946 24.7008C16.3946 18.239 12.0941 13.0008 6.78906 13.0008Z" fill="#20294C"/>
<path d="M1.30078 8.87186C3.95329 8.87186 6.10355 6.09866 6.10355 2.67773C6.10355 6.09866 8.25383 8.87186 10.9063 8.87186C8.25383 8.87186 6.10355 11.6451 6.10355 15.0659C6.10355 11.6451 3.95329 8.87186 1.30078 8.87186Z" fill="#20294C"/>
<path d="M6.78906 19.1959C8.30478 19.1959 9.53351 17.3471 9.53351 15.0664C9.53351 17.3471 10.7622 19.1959 12.2779 19.1959C10.7622 19.1959 9.53351 21.0447 9.53351 23.3253C9.53351 21.0447 8.30478 19.1959 6.78906 19.1959Z" fill="#20294C"/>
</g>
<defs>
<clipPath id="clip0_2058_733">
<rect width="26" height="26" fill="white"/>
</clipPath>
</defs>
</svg>
