<svg width="24" height="24" viewBox="0 0 24 24" fill="none" xmlns="http://www.w3.org/2000/svg">
<path fill-rule="evenodd" clip-rule="evenodd" d="M22.8002 12.0002C22.8002 17.9652 17.9652 22.8002 12.0002 22.8002C6.0352 22.8002 1.2002 17.9652 1.2002 12.0002C1.2002 6.0352 6.0352 1.2002 12.0002 1.2002C17.9652 1.2002 22.8002 6.0352 22.8002 12.0002ZM10.1972 15.9682C10.0372 16.5532 9.7332 16.8002 9.1962 16.8002C8.6662 16.8002 8.3732 16.5472 8.2082 15.9612L6.08619 8.4872C6.03299 8.31437 6.00405 8.13499 6.0002 7.9542C6.0002 7.4922 6.3312 7.2002 6.8422 7.2002C7.2862 7.2002 7.5652 7.4402 7.6712 7.90219L9.2682 14.4152H9.3222L11.0782 7.9932C11.2242 7.4342 11.5032 7.2002 12.0072 7.2002C12.4912 7.2002 12.7762 7.4472 12.9222 7.9732L14.6782 14.4152H14.7312L16.3292 7.90219C16.4352 7.4342 16.7142 7.2002 17.1582 7.2002C17.6682 7.2002 18.0002 7.4922 18.0002 7.9542C18.0002 8.0972 17.9742 8.2722 17.9142 8.4872L15.7862 15.9682C15.6262 16.5472 15.3352 16.8002 14.8112 16.8002C14.2612 16.8002 13.9692 16.5602 13.8032 15.9682L12.0332 9.9042H11.9672L10.1972 15.9682Z" fill="#20294C"/>
</svg>
