<svg width="24" height="24" viewBox="0 0 24 24" fill="none" xmlns="http://www.w3.org/2000/svg">
<path fill-rule="evenodd" clip-rule="evenodd" d="M4.065 9.27357C4.16041 9.24907 4.25971 9.2436 4.35722 9.25748C4.45474 9.27136 4.54857 9.30432 4.63335 9.35446C4.71813 9.4046 4.79221 9.47096 4.85134 9.54973C4.91048 9.62851 4.95352 9.71816 4.978 9.81357C5.21419 10.7284 5.62768 11.588 6.195 12.3436C6.86966 13.2463 7.74575 13.9792 8.75354 14.4837C9.76133 14.9882 10.873 15.2504 12 15.2496C13.1341 15.2504 14.2526 14.9848 15.2652 14.4741C16.2779 13.9634 17.1564 13.222 17.83 12.3096C18.3846 11.5619 18.7894 10.714 19.022 9.81257C19.0761 9.62498 19.2011 9.46586 19.3706 9.36902C19.5401 9.27217 19.7407 9.24524 19.9298 9.29393C20.1188 9.34263 20.2814 9.46311 20.383 9.62979C20.4847 9.79647 20.5173 9.99621 20.474 10.1866C20.2387 11.1006 19.8564 11.9703 19.342 12.7616L20.464 14.2826C20.525 14.3616 20.5696 14.4521 20.5951 14.5486C20.6207 14.6451 20.6267 14.7458 20.6129 14.8447C20.599 14.9436 20.5655 15.0387 20.5144 15.1245C20.4633 15.2103 20.3956 15.285 20.3152 15.3443C20.2349 15.4035 20.1435 15.4461 20.0464 15.4696C19.9493 15.4931 19.8486 15.4969 19.75 15.4809C19.6514 15.4649 19.5571 15.4294 19.4724 15.3765C19.3877 15.3235 19.3145 15.2542 19.257 15.1726L18.381 13.9866C17.8157 14.589 17.1684 15.1088 16.458 15.5306L17.324 17.5656C17.3969 17.7477 17.3956 17.951 17.3203 18.1322C17.245 18.3133 17.1018 18.4577 16.9213 18.5345C16.7408 18.6112 16.5374 18.6142 16.3547 18.5429C16.1721 18.4715 16.0246 18.3314 15.944 18.1526L15.105 16.1826C14.3487 16.4695 13.5561 16.6496 12.75 16.7176V18.9996C12.75 19.1985 12.671 19.3892 12.5303 19.5299C12.3897 19.6706 12.1989 19.7496 12 19.7496C11.8011 19.7496 11.6103 19.6706 11.4697 19.5299C11.329 19.3892 11.25 19.1985 11.25 18.9996V16.7176C10.4439 16.6496 9.65131 16.4695 8.895 16.1826L8.056 18.1526C8.0189 18.2453 7.96366 18.3296 7.89353 18.4007C7.82339 18.4717 7.73978 18.5281 7.64758 18.5664C7.55538 18.6047 7.45647 18.6242 7.35662 18.6238C7.25678 18.6234 7.15803 18.6031 7.06615 18.564C6.97428 18.5249 6.89113 18.4679 6.82158 18.3962C6.75204 18.3246 6.6975 18.2398 6.66116 18.1468C6.62482 18.0538 6.60741 17.9545 6.60996 17.8547C6.61251 17.7549 6.63496 17.6566 6.676 17.5656L7.542 15.5306C6.83162 15.1088 6.18424 14.5891 5.619 13.9866L4.743 15.1736C4.68549 15.2552 4.61226 15.3245 4.5276 15.3775C4.44294 15.4304 4.34856 15.4659 4.24999 15.4819C4.15143 15.4979 4.05066 15.4941 3.9536 15.4706C3.85654 15.4471 3.76515 15.4045 3.68478 15.3453C3.60441 15.286 3.53668 15.2113 3.48557 15.1255C3.43446 15.0397 3.401 14.9446 3.38714 14.8457C3.37328 14.7468 3.37931 14.6461 3.40487 14.5496C3.43044 14.4531 3.47502 14.3626 3.536 14.2836L4.658 12.7616C4.14359 11.9703 3.76126 11.1006 3.526 10.1866C3.5015 10.0912 3.49604 9.99187 3.50992 9.89435C3.5238 9.79683 3.55675 9.703 3.60689 9.61822C3.65704 9.53344 3.72339 9.45936 3.80217 9.40023C3.88094 9.34109 3.96959 9.29805 4.065 9.27357Z" fill="#20294C"/>
</svg>
