<svg width="24" height="24" viewBox="0 0 24 24" fill="none" xmlns="http://www.w3.org/2000/svg">
<path d="M11.3984 8.40078C11.3984 8.24165 11.4617 8.08904 11.5742 7.97652C11.6867 7.864 11.8393 7.80078 11.9984 7.80078C12.1576 7.80078 12.3102 7.864 12.4227 7.97652C12.5352 8.08904 12.5984 8.24165 12.5984 8.40078C12.5984 8.55991 12.5352 8.71252 12.4227 8.82505C12.3102 8.93757 12.1576 9.00078 11.9984 9.00078C11.8393 9.00078 11.6867 8.93757 11.5742 8.82505C11.4617 8.71252 11.3984 8.55991 11.3984 8.40078Z" fill="#20294C"/>
<path fill-rule="evenodd" clip-rule="evenodd" d="M10.7278 5.72078L8.32778 8.12078C8.16065 8.28796 8.02809 8.48643 7.93766 8.70486C7.84724 8.92328 7.80073 9.15738 7.80078 9.39377V16.7998C7.80078 17.2772 7.99042 17.735 8.32799 18.0726C8.66555 18.4101 9.12339 18.5998 9.60078 18.5998H14.4008C14.8782 18.5998 15.336 18.4101 15.6736 18.0726C16.0111 17.735 16.2008 17.2772 16.2008 16.7998V9.39377C16.2008 9.15738 16.1543 8.92328 16.0639 8.70486C15.9735 8.48643 15.8409 8.28796 15.6738 8.12078L13.2738 5.72078C13.1066 5.55357 12.9082 5.42093 12.6897 5.33043C12.4713 5.23994 12.2372 5.19336 12.0008 5.19336C11.7644 5.19336 11.5302 5.23994 11.3118 5.33043C11.0934 5.42093 10.8949 5.55357 10.7278 5.72078ZM12.0008 6.59977C11.5234 6.59977 11.0656 6.78942 10.728 7.12698C10.3904 7.46455 10.2008 7.92238 10.2008 8.39977C10.2008 8.87716 10.3904 9.335 10.728 9.67257C11.0656 10.0101 11.5234 10.1998 12.0008 10.1998C12.4782 10.1998 12.936 10.0101 13.2736 9.67257C13.6111 9.335 13.8008 8.87716 13.8008 8.39977C13.8008 7.92238 13.6111 7.46455 13.2736 7.12698C12.936 6.78942 12.4782 6.59977 12.0008 6.59977Z" fill="#20294C"/>
<path fill-rule="evenodd" clip-rule="evenodd" d="M22.7992 11.9992C22.7992 17.9642 17.9642 22.7992 11.9992 22.7992C6.03422 22.7992 1.19922 17.9642 1.19922 11.9992C1.19922 6.03422 6.03422 1.19922 11.9992 1.19922C17.9642 1.19922 22.7992 6.03422 22.7992 11.9992ZM9.87822 4.87222C10.4408 4.30981 11.2037 3.99386 11.9992 3.99386C12.7947 3.99386 13.5576 4.30981 14.1202 4.87222L16.5202 7.27222C17.0829 7.8347 17.399 8.59763 17.3992 9.39322V16.7992C17.3992 17.5949 17.0831 18.3579 16.5205 18.9205C15.9579 19.4831 15.1949 19.7992 14.3992 19.7992H9.59922C8.80357 19.7992 8.04051 19.4831 7.4779 18.9205C6.91529 18.3579 6.59922 17.5949 6.59922 16.7992V9.39322C6.59939 8.59763 6.91557 7.8347 7.47822 7.27222L9.87822 4.87222Z" fill="#20294C"/>
</svg>
