<svg width="24" height="24" viewBox="0 0 24 24" fill="none" xmlns="http://www.w3.org/2000/svg">
<path fill-rule="evenodd" clip-rule="evenodd" d="M22.8002 12.0002C22.8002 17.9652 17.9652 22.8002 12.0002 22.8002C6.0352 22.8002 1.2002 17.9652 1.2002 12.0002C1.2002 6.0352 6.0352 1.2002 12.0002 1.2002C17.9652 1.2002 22.8002 6.0352 22.8002 12.0002ZM8.7022 16.0142C8.7022 16.5082 8.4192 16.8002 7.9482 16.8002C7.4782 16.8002 7.2002 16.5072 7.2002 16.0132V8.2672C7.2002 7.6042 7.6062 7.2012 8.2702 7.2012C8.8442 7.2012 9.1732 7.44819 9.4182 8.0722L11.9782 14.3902H12.0292L14.5822 8.0722C14.8272 7.4542 15.1622 7.2012 15.7422 7.2012C16.4072 7.2012 16.8002 7.5972 16.8002 8.2672V16.0152C16.8002 16.5092 16.5232 16.8012 16.0522 16.8012C15.5822 16.8012 15.3042 16.5082 15.3042 16.0142V10.0342H15.2592L12.7892 16.0672C12.6292 16.4572 12.3902 16.6322 12.0032 16.6322C11.6232 16.6322 11.3712 16.4572 11.2172 16.0732L8.7472 10.0352H8.7022V16.0142Z" fill="#20294C"/>
</svg>
