<svg width="32" height="32" viewBox="0 0 32 32" fill="none" xmlns="http://www.w3.org/2000/svg">
<path fill-rule="evenodd" clip-rule="evenodd" d="M25.9999 26.57H27.9999C28.4242 26.57 28.8312 26.7385 29.1313 27.0386C29.4313 27.3386 29.5999 27.7456 29.5999 28.17C29.5999 28.5943 29.4313 29.0013 29.1313 29.3013C28.8312 29.6014 28.4242 29.77 27.9999 29.77H3.9999C3.57556 29.77 3.16859 29.6014 2.86853 29.3013C2.56847 29.0013 2.3999 28.5943 2.3999 28.17C2.3999 27.7456 2.56847 27.3386 2.86853 27.0386C3.16859 26.7385 3.57556 26.57 3.9999 26.57H5.9999V15.555C7.30535 15.7307 8.62749 15.3851 9.6799 14.593L11.0239 13.574C11.1457 13.485 11.2926 13.437 11.4434 13.437C11.5942 13.437 11.7411 13.485 11.8629 13.574L13.0089 14.444C13.8785 15.0968 14.9365 15.4497 16.0239 15.4497C17.1113 15.4497 18.1693 15.0968 19.0389 14.444L20.1859 13.574C20.3077 13.485 20.4546 13.437 20.6054 13.437C20.7562 13.437 20.9031 13.485 21.0249 13.574L22.3689 14.594C23.4075 15.3753 24.7093 15.7221 25.9989 15.561L25.9999 26.57ZM11.5999 26.57H13.9999V22.4C13.9999 21.8695 14.2106 21.3608 14.5857 20.9857C14.9608 20.6107 15.4695 20.4 15.9999 20.4C16.5303 20.4 17.039 20.6107 17.4141 20.9857C17.7892 21.3608 17.9999 21.8695 17.9999 22.4V26.57H20.3999V22.4C20.3999 21.233 19.9363 20.1138 19.1112 19.2887C18.286 18.4635 17.1669 18 15.9999 18C14.833 18 13.7138 18.4635 12.8886 19.2887C12.0635 20.1138 11.5999 21.233 11.5999 22.4V26.57Z" fill="#20294C"/>
<path d="M4.53979 5.0882C4.59979 4.9282 4.66579 4.7692 4.76679 4.6282C5.39379 3.7462 6.51379 3.2002 7.73079 3.2002H9.59979V11.9442L9.30279 12.1472C8.12279 12.9572 6.46679 13.0192 5.20879 12.3002L4.66379 11.9882C2.29279 10.6312 3.31779 8.1152 4.16479 6.0372C4.29879 5.7072 4.42879 5.3902 4.53979 5.0882ZM11.9998 10.9762V3.2002H19.9998V10.9762C19.7329 11.0202 19.4788 11.1216 19.2548 11.2732L18.1688 12.0192C16.9008 12.8892 15.0988 12.8892 13.8308 12.0192L12.7448 11.2732C12.5208 11.1216 12.2667 11.0202 11.9998 10.9762ZM22.3998 11.9442L22.6968 12.1472C23.8768 12.9572 25.5328 13.0192 26.7908 12.3002L27.3358 11.9882C29.7068 10.6312 28.6818 8.1152 27.8348 6.0372C27.7008 5.7072 27.5708 5.3892 27.4598 5.0872C27.4048 4.92448 27.3285 4.76979 27.2328 4.6272C26.6058 3.7472 25.4858 3.2002 24.2688 3.2002H22.3988L22.3998 11.9442Z" fill="#20294C"/>
</svg>
