<svg width="24" height="24" viewBox="0 0 24 24" fill="none" xmlns="http://www.w3.org/2000/svg">
<path fill-rule="evenodd" clip-rule="evenodd" d="M11.9998 1.1998C9.13547 1.1998 6.38844 2.33766 4.36305 4.36305C2.33766 6.38844 1.1998 9.13547 1.1998 11.9998C1.1998 14.8641 2.33766 17.6112 4.36305 19.6366C6.38844 21.662 9.13547 22.7998 11.9998 22.7998C14.8641 22.7998 17.6112 21.662 19.6366 19.6366C21.662 17.6112 22.7998 14.8641 22.7998 11.9998C22.7998 9.13547 21.662 6.38844 19.6366 4.36305C17.6112 2.33766 14.8641 1.1998 11.9998 1.1998ZM16.2358 9.5638L12.6358 5.9638C12.4671 5.79526 12.2383 5.7006 11.9998 5.7006C11.7613 5.7006 11.5326 5.79526 11.3638 5.9638L7.7638 9.5638C7.67538 9.6462 7.60446 9.74556 7.55527 9.85596C7.50608 9.96636 7.47963 10.0855 7.47749 10.2064C7.47536 10.3272 7.49759 10.4473 7.54286 10.5593C7.58812 10.6714 7.6555 10.7732 7.74096 10.8587C7.82642 10.9441 7.92822 11.0115 8.04029 11.0568C8.15235 11.102 8.27239 11.1242 8.39323 11.1221C8.51407 11.12 8.63325 11.0935 8.74365 11.0443C8.85405 10.9952 8.95341 10.9242 9.0358 10.8358L11.0998 8.7718L11.0998 16.7998C11.0998 17.0385 11.1946 17.2674 11.3634 17.4362C11.5322 17.605 11.7611 17.6998 11.9998 17.6998C12.2385 17.6998 12.4674 17.605 12.6362 17.4362C12.805 17.2674 12.8998 17.0385 12.8998 16.7998L12.8998 8.7718L14.9638 10.8358C15.1344 10.9948 15.3601 11.0813 15.5932 11.0772C15.8264 11.0731 16.0489 10.9786 16.2138 10.8138C16.3786 10.6489 16.4731 10.4264 16.4772 10.1932C16.4813 9.96007 16.3948 9.73441 16.2358 9.5638Z" fill="#20294C"/>
</svg>
