<svg width="26" height="26" viewBox="0 0 26 26" fill="none" xmlns="http://www.w3.org/2000/svg">
<path d="M6.63439 3.59629C7.16921 3.23981 7.79933 3.04439 8.44099 3.04375C10.0181 3.04219 11.7233 3.69192 12.9823 5.27763C13.5698 6.01747 14.3988 6.59448 15.2951 6.85144C16.1989 7.11059 17.21 7.05074 18.0745 6.44272C18.379 6.22845 18.4533 5.80644 18.2402 5.50011C18.0271 5.19379 17.6075 5.11916 17.3029 5.33341C16.8378 5.66054 16.2649 5.72184 15.6641 5.54959C15.0557 5.37514 14.4594 4.96819 14.0344 4.43299C13.6418 3.93867 14.0342 2.89568 14.6643 2.86019C15.2515 2.8271 15.8375 2.76529 16.4203 2.67473C21.0947 1.94832 24.7513 6.65694 22.9171 11.041L22.2025 12.7492C21.7826 13.7528 21.5156 14.8144 21.4105 15.8981L20.8498 21.6824C20.8032 22.1642 20.5755 22.61 20.2133 22.9288C19.4999 23.5571 18.4342 23.5571 17.7207 22.9288L17.6135 22.8345C17.3155 22.572 17.0993 22.2287 16.9909 21.8456L15.0109 14.8478C14.6349 13.5192 12.754 13.5435 12.4121 14.8813L10.6386 21.8207C10.5368 22.2193 10.3176 22.5775 10.0098 22.8485L9.9421 22.9082C9.21516 23.5483 8.12921 23.5483 7.40228 22.9082C7.05386 22.6012 6.82696 22.1786 6.76308 21.7174L5.92489 15.6647C5.79605 14.7343 5.54738 13.8248 5.18513 12.9589L4.38273 11.041C3.17327 8.15004 4.35132 5.11798 6.63439 3.59629Z" fill="#20294C"/>
</svg>
