<svg width="119" height="97" viewBox="0 0 119 97" fill="none" xmlns="http://www.w3.org/2000/svg">
<path d="M115.142 91.3497C90.5326 90.2478 71.8041 74.7351 57.8012 55.2752C54.5632 50.7754 26.035 2.54086 48.6712 3.279C62.7975 3.73964 79.6516 16.7516 85.5807 29.1658C98.6851 56.6031 44.8508 87.9639 22.546 85.1758C5.6251 83.0607 21.2999 58.0774 26.1804 52.1577C37.2749 38.7003 52.3057 29.6868 69.0466 24.8791C78.744 22.0942 98.753 20.7634 91.4261 37.1266C83.7549 54.2591 64.5923 69.0239 47.4465 75.6506C38.0184 79.2944 27.6739 81.0782 17.6071 81.4403C14.5631 81.5498 7.35004 82.0905 4.69157 79.2135C-3.64792 70.1886 4.05022 50.8049 9.1452 42.5823C16.6467 30.476 29.0883 21.5288 43.5495 27.106C58.9573 33.0482 69.4153 46.4027 82.2405 56.0546C85.8164 58.7457 100.757 68.425 101.558 58.2814C103.487 33.8507 74.5705 2.74387 50.6754 1.05218C37.5609 0.123718 24.3141 12.2511 21.6154 24.6565C18.031 41.1331 37.5625 52.0487 50.4527 55.9989C67.1562 61.1177 86.8414 60.7133 104.008 58.2814C108.857 57.5944 116.179 56.2563 117.758 50.5989C120.472 40.874 99.307 38.1767 94.0983 37.572C75.752 35.4421 50.9971 40.5123 38.5392 55.4979C32.8392 62.3544 35.3109 68.3684 43.7166 69.5825C59.9658 71.9296 78.3245 63.4747 91.9828 76.764C109.517 93.8245 39.1476 106.967 29.5206 81.5517C25.6051 71.2147 42.4095 64.3441 49.2836 61.9C56.1791 59.4482 65.7124 57.2278 72.3868 61.733C80.0998 66.9392 71.4637 73.8351 68.0445 78.3228" stroke="#1AE69B" stroke-width="2" stroke-linecap="round"/>
</svg>
