<svg width="58" height="24" viewBox="0 0 58 24" fill="none" xmlns="http://www.w3.org/2000/svg">
<path d="M1.01684 20.602C7.13568 18.7159 12.2343 16.3003 17.2852 12.4739C20.5972 9.96489 24.4466 6.90874 25.7435 2.87831C26.7191 -0.153509 22.9601 1.7332 21.7059 2.65253C14.5443 7.90192 9.01049 22.185 15.3106 22.9162C18.9716 23.3412 23.7982 19.5594 26.5393 17.6951C31.028 14.6421 35.0602 10.994 38.711 7.05523C39.2664 6.45605 45.2069 -0.445757 41.0688 1.29786C35.6821 3.56753 25.4382 13.6318 29.398 19.9811C33.4561 26.488 44.7648 16.6874 47.8914 13.6593C49.1985 12.3934 52.2238 9.42591 52.2238 9.42591C52.2238 9.42591 51.6054 10.2166 51.2954 10.6113C50.4971 11.6276 49.7354 12.6644 49.0556 13.7581C48.3698 14.8613 45.965 18.4289 48.8935 18.4289C51.6778 18.4289 54.331 17.046 56.9834 15.268" stroke="black" stroke-width="2" stroke-linecap="round" stroke-linejoin="round"/>
</svg>
