<svg width="112" height="112" viewBox="0 0 112 112" fill="none" xmlns="http://www.w3.org/2000/svg">
<g clip-path="url(#clip0_2058_804)">
<path d="M26.7706 74.1116C-0.0928497 46.9084 27.3762 0.929672 64.3432 5.06021C97.3614 9.60235 104.27 39.0547 94.0255 57.1143C81.7817 78.6988 47.867 95.4749 26.7706 74.1116Z" stroke="#19E59B" stroke-opacity="0.1" stroke-width="4" stroke-linecap="round" stroke-linejoin="round"/>
<path d="M72.0582 72.3062C72.0582 69.5713 73.5102 67.0854 75.5723 65.2888C81.7168 59.9357 85.6002 52.0533 85.6002 43.264C85.6002 27.1372 72.5269 14.064 56.4002 14.064C40.2735 14.064 27.2002 27.1372 27.2002 43.264C27.2002 52.0533 31.0835 59.9357 37.2281 65.2888C39.2902 67.0854 40.7422 69.5713 40.7422 72.3062V73.9132C40.7422 78.3315 44.324 81.9132 48.7422 81.9132H64.0582C68.4764 81.9132 72.0582 78.3315 72.0582 73.9132V72.3062Z" fill="#0582FB"/>
<mask id="mask0_2058_804" style="mask-type:alpha" maskUnits="userSpaceOnUse" x="27" y="14" width="59" height="68">
<path d="M72.0582 72.3062C72.0582 69.5713 73.5102 67.0854 75.5723 65.2888C81.7168 59.9357 85.6002 52.0533 85.6002 43.264C85.6002 27.1372 72.5269 14.064 56.4002 14.064C40.2735 14.064 27.2002 27.1372 27.2002 43.264C27.2002 52.0533 31.0835 59.9357 37.2281 65.2888C39.2902 67.0854 40.7422 69.5713 40.7422 72.3062V73.9132C40.7422 78.3315 44.324 81.9132 48.7422 81.9132H64.0582C68.4764 81.9132 72.0582 78.3315 72.0582 73.9132V72.3062Z" fill="#1AE69B"/>
</mask>
<g mask="url(#mask0_2058_804)">
<path fill-rule="evenodd" clip-rule="evenodd" d="M78.2731 55.75C78.5673 55.6262 79.0741 55.6771 79.1529 56.1899C79.2753 56.9873 77.9248 57.2425 77.8331 56.4099C77.8056 56.1606 77.801 55.9484 78.2731 55.75Z" fill="#00A3FF"/>
<path fill-rule="evenodd" clip-rule="evenodd" d="M72.4439 55.9699C72.5594 56.672 72.2661 56.9653 71.564 56.8498C70.8349 56.2705 71.8651 55.2408 72.4439 55.9699Z" fill="#00A3FF"/>
<path fill-rule="evenodd" clip-rule="evenodd" d="M85.642 55.9699C85.7575 56.672 85.4642 56.9653 84.7621 56.8498C84.033 56.2705 85.0632 55.2408 85.642 55.9699Z" fill="#00A3FF"/>
<path fill-rule="evenodd" clip-rule="evenodd" d="M65.7349 56.1899C65.7688 56.6271 65.5236 56.7852 65.075 56.7398C65.0264 56.6417 64.9783 56.5432 64.855 56.5198C64.6488 55.7985 65.6171 55.6574 65.7349 56.1899Z" fill="#00A3FF"/>
<path fill-rule="evenodd" clip-rule="evenodd" d="M92.131 56.1899C92.1649 56.6271 91.9198 56.7852 91.4716 56.7398C91.423 56.6417 91.3749 56.5432 91.2516 56.5198C91.0449 55.7985 92.0133 55.6574 92.131 56.1899Z" fill="#00A3FF"/>
<path fill-rule="evenodd" clip-rule="evenodd" d="M74.8636 58.8295C76.4602 58.1609 76.3667 60.9073 74.8636 60.4793C74.1784 60.2841 74.1459 59.1301 74.8636 58.8295Z" fill="#00A3FF"/>
<path fill-rule="evenodd" clip-rule="evenodd" d="M81.4626 58.8295C83.0587 58.1609 82.9652 60.9073 81.4626 60.4793C80.777 60.2841 80.7449 59.1301 81.4626 58.8295Z" fill="#00A3FF"/>
<path fill-rule="evenodd" clip-rule="evenodd" d="M68.1545 58.9395C68.5069 58.6302 69.2072 58.9083 69.3644 59.1595C69.775 60.4037 68.3259 60.696 67.8246 60.0393C67.8191 59.5572 67.7476 59.0092 68.1545 58.9395Z" fill="#00A3FF"/>
<path fill-rule="evenodd" clip-rule="evenodd" d="M87.9516 58.9395C88.3045 58.6302 89.0047 58.9083 89.1619 59.1595C89.5725 60.4037 88.1235 60.696 87.6221 60.0393C87.6157 59.5572 87.5447 59.0092 87.9516 58.9395Z" fill="#00A3FF"/>
<path fill-rule="evenodd" clip-rule="evenodd" d="M61.7755 59.0495C62.0697 58.9257 62.5765 58.9766 62.6553 59.4894C62.7781 60.2868 61.4276 60.5421 61.3355 59.7094C61.308 59.4601 61.3034 59.2479 61.7755 59.0495Z" fill="#00A3FF"/>
<path fill-rule="evenodd" clip-rule="evenodd" d="M54.9564 59.7094C54.9294 59.0316 55.8629 59.0316 55.8363 59.7094C55.6393 60.092 55.1535 60.092 54.9564 59.7094Z" fill="#00A3FF"/>
<path fill-rule="evenodd" clip-rule="evenodd" d="M71.674 61.9091C72.2194 61.7835 72.9292 62.0016 72.9938 62.7889C73.1162 64.2788 70.7941 64.3645 70.7941 62.8989C70.7941 62.5502 70.8899 62.0896 71.674 61.9091Z" fill="#00A3FF"/>
<path fill-rule="evenodd" clip-rule="evenodd" d="M78.1631 61.9091C79.8504 61.3844 80.008 63.8943 78.603 63.9988C78.0952 64.0368 77.4486 63.7568 77.3932 63.0089C77.3451 62.3637 77.5261 62.107 78.1631 61.9091Z" fill="#00A3FF"/>
<path fill-rule="evenodd" clip-rule="evenodd" d="M84.8721 61.9091C85.4174 61.7835 86.1273 62.0016 86.1919 62.7889C86.3143 64.2788 83.9922 64.3645 83.9922 62.8989C83.9922 62.5502 84.088 62.0896 84.8721 61.9091Z" fill="#00A3FF"/>
<path fill-rule="evenodd" clip-rule="evenodd" d="M65.075 62.0191C65.7688 61.8339 66.2477 62.1978 66.2848 62.7889C66.3604 63.9869 64.4137 64.3237 64.3051 63.0089C64.2748 62.6386 64.2794 62.2317 65.075 62.0191Z" fill="#00A3FF"/>
<path fill-rule="evenodd" clip-rule="evenodd" d="M59.3558 62.349C59.9103 63.3132 58.7605 64.0904 58.036 63.4488C57.4815 62.4847 58.6313 61.7074 59.3558 62.349Z" fill="#00A3FF"/>
<path fill-rule="evenodd" clip-rule="evenodd" d="M52.5368 62.569C52.5368 62.7889 52.5368 63.0089 52.5368 63.2289C52.3952 63.3806 52.0593 63.3379 51.7669 63.3389C51.3091 62.7935 51.9915 62.1112 52.5368 62.569Z" fill="#00A3FF"/>
<path fill-rule="evenodd" clip-rule="evenodd" d="M68.2645 65.0986C69.1008 64.8681 69.7493 65.2631 69.8043 66.0885C69.9179 67.7973 67.4845 67.8134 67.3846 66.3084C67.3553 65.8639 67.4245 65.3305 68.2645 65.0986Z" fill="#00A3FF"/>
<path fill-rule="evenodd" clip-rule="evenodd" d="M74.6436 65.0986C74.9648 64.9643 75.4808 64.9006 75.7434 64.9886C75.7803 65.0009 76.384 65.5917 76.4033 65.6485C76.6132 66.2901 76.3479 66.8038 76.0734 67.0783C75.869 67.2827 75.3424 67.6365 74.6436 67.4083C74.5257 67.37 74.0283 66.8886 73.9837 66.7484C73.7669 66.0825 73.8957 65.4121 74.6436 65.0986Z" fill="#00A3FF"/>
<path fill-rule="evenodd" clip-rule="evenodd" d="M81.2426 65.0986C81.5634 64.9643 82.0799 64.9006 82.3425 64.9886C82.3766 65.0001 82.9847 65.5959 83.0014 65.6485C83.2113 66.2901 82.9465 66.8038 82.6715 67.0783C82.4671 67.2827 81.9406 67.6365 81.2417 67.4083C81.1314 67.3724 80.6138 66.8476 80.5823 66.7484C80.366 66.0825 80.4947 65.4121 81.2426 65.0986Z" fill="#00A3FF"/>
<path fill-rule="evenodd" clip-rule="evenodd" d="M88.0616 65.0986C88.4512 64.9932 88.8086 64.9744 89.0515 65.0986C89.2792 65.2155 89.5606 65.6765 89.6014 65.9785C89.8319 67.6892 87.2936 67.9834 87.1818 66.3084C87.1295 65.5234 87.3729 65.2851 88.0616 65.0986Z" fill="#00A3FF"/>
<path fill-rule="evenodd" clip-rule="evenodd" d="M61.6655 65.2086C62.2159 65.0386 63.0389 65.3255 63.0953 66.0885C63.1434 66.7401 62.5637 67.2644 62.1054 67.2983C61.0431 67.3767 60.2953 65.632 61.6655 65.2086Z" fill="#00A3FF"/>
<path fill-rule="evenodd" clip-rule="evenodd" d="M55.0664 65.4286C56.663 64.76 56.5695 67.5063 55.0664 67.0783C54.3813 66.8831 54.3483 65.7292 55.0664 65.4286Z" fill="#00A3FF"/>
<path fill-rule="evenodd" clip-rule="evenodd" d="M49.3473 65.8685C49.4628 66.5706 49.1695 66.8639 48.4674 66.7484C47.7383 66.1691 48.768 65.1394 49.3473 65.8685Z" fill="#00A3FF"/>
<path fill-rule="evenodd" clip-rule="evenodd" d="M71.674 68.1782C72.4082 68.0473 73.272 68.4846 73.3238 69.388C73.3682 70.1634 72.6235 70.8925 72.004 70.9278C71.3344 70.9658 70.4642 70.3723 70.4642 69.498C70.4642 68.767 70.9623 68.3069 71.674 68.1782Z" fill="#00A3FF"/>
<path fill-rule="evenodd" clip-rule="evenodd" d="M78.1631 68.1782C80.2931 67.6997 80.4553 70.8311 78.603 70.9278C77.8015 70.9695 77.0632 70.4814 77.0632 69.498C77.0632 68.7455 77.3661 68.3573 78.1631 68.1782Z" fill="#00A3FF"/>
<path fill-rule="evenodd" clip-rule="evenodd" d="M84.8721 68.1782C84.9184 68.1699 84.9697 68.0604 85.0921 68.0682C85.8881 68.1177 86.4847 68.7409 86.5214 69.388C86.5663 70.1634 85.8216 70.8925 85.2016 70.9278C84.5321 70.9658 83.6623 70.3723 83.6623 69.498C83.6623 68.767 84.1604 68.3069 84.8721 68.1782Z" fill="#00A3FF"/>
<path fill-rule="evenodd" clip-rule="evenodd" d="M64.965 68.2882C65.7051 68.1003 66.6148 68.526 66.6148 69.498C66.6148 70.2362 65.9746 70.7843 65.4049 70.8178C64.7909 70.854 63.9751 70.4585 63.9751 69.498C63.9751 68.8298 64.2286 68.4751 64.965 68.2882Z" fill="#00A3FF"/>
<path fill-rule="evenodd" clip-rule="evenodd" d="M58.5859 68.3981C58.7798 68.3716 59.0708 68.3152 59.2458 68.3981C59.3595 68.4518 59.7673 68.8848 59.7957 68.9481C59.9273 69.2391 59.8874 69.8453 59.7957 70.0479C59.7655 70.1143 59.2229 70.6079 59.2458 70.5978C58.1982 71.0717 57.202 69.7963 57.5961 68.9481C57.5988 68.9426 58.0676 68.432 58.146 68.3981C58.2601 68.3491 58.4617 68.4151 58.5859 68.3981Z" fill="#00A3FF"/>
<path fill-rule="evenodd" clip-rule="evenodd" d="M51.9869 68.6181C52.3237 68.5572 52.7426 68.6901 52.8668 68.8381C53.1023 69.1194 53.0551 70.0186 52.7568 70.2679C52.4736 70.5052 51.6523 70.5465 51.327 70.1579C51.1345 69.9278 51.0786 69.1185 51.327 68.8381C51.4608 68.6864 51.7394 68.6626 51.9869 68.6181Z" fill="#00A3FF"/>
<path fill-rule="evenodd" clip-rule="evenodd" d="M46.0477 69.168C46.1628 69.8701 45.8699 70.1634 45.1679 70.0479C44.4383 69.4691 45.469 68.4385 46.0477 69.168Z" fill="#00A3FF"/>
<path fill-rule="evenodd" clip-rule="evenodd" d="M68.4845 71.3677C68.8942 71.3237 69.429 71.4323 69.6943 71.6977C70.2277 72.2311 70.1049 73.4872 69.6943 73.8973C69.2067 74.3849 68.0061 74.4088 67.4946 73.8973C67.3058 73.7085 67.0354 73.0454 67.0547 72.6875C67.0661 72.479 67.2921 71.9218 67.3846 71.8076C67.6092 71.5318 68.0555 71.4135 68.4845 71.3677Z" fill="#00A3FF"/>
<path fill-rule="evenodd" clip-rule="evenodd" d="M74.7536 71.3677C75.0945 71.2747 75.3644 71.1959 75.6334 71.2577C76.0225 71.3475 76.6765 72.04 76.7333 72.5775C76.8277 73.4725 76.1568 74.2589 75.4135 74.3373C74.6857 74.4138 73.5822 74.0385 73.6537 72.6875C73.684 72.1183 73.9475 71.5877 74.7536 71.3677Z" fill="#00A3FF"/>
<path fill-rule="evenodd" clip-rule="evenodd" d="M81.3526 71.3677C81.6931 71.2747 81.963 71.1959 82.2325 71.2577C82.6215 71.3475 83.2755 72.04 83.3319 72.5775C83.4263 73.4725 82.7554 74.2589 82.0121 74.3373C81.2843 74.4138 80.1808 74.0385 80.2523 72.6875C80.283 72.1183 80.5461 71.5877 81.3526 71.3677Z" fill="#00A3FF"/>
<path fill-rule="evenodd" clip-rule="evenodd" d="M61.8854 71.4777C62.5211 71.4057 63.3789 71.8672 63.4252 72.6875C63.4623 73.3424 62.8593 74.1847 62.1054 74.2273C61.4249 74.2658 60.5294 73.7214 60.5656 72.6875C60.5647 72.7191 60.65 72.3182 60.6756 72.2476C60.7916 71.9314 61.1628 71.5597 61.8854 71.4777Z" fill="#00A3FF"/>
<path fill-rule="evenodd" clip-rule="evenodd" d="M55.0664 71.6977C55.9028 71.4671 56.5517 71.8622 56.6062 72.6875C56.7199 74.3964 54.2865 74.4124 54.1866 72.9075C54.1572 72.463 54.2264 71.9295 55.0664 71.6977Z" fill="#00A3FF"/>
<path fill-rule="evenodd" clip-rule="evenodd" d="M48.5774 71.9176C48.9555 71.8173 49.3592 71.8975 49.5672 72.1376C49.5879 72.1614 49.779 72.589 49.7872 72.6875C49.8362 73.2856 49.3198 73.7534 48.9073 73.7874C47.9661 73.8643 47.1458 72.298 48.5774 71.9176Z" fill="#00A3FF"/>
<path fill-rule="evenodd" clip-rule="evenodd" d="M42.7482 72.4675C42.8637 73.1696 42.5704 73.4629 41.8684 73.3474C41.1393 72.7682 42.169 71.7384 42.7482 72.4675Z" fill="#00A3FF"/>
<path fill-rule="evenodd" clip-rule="evenodd" d="M71.454 74.5572C71.8101 74.4688 72.025 74.3849 72.3339 74.4473C72.8151 74.5444 73.4558 75.1704 73.5437 75.7671C73.695 76.7927 72.9979 77.6327 72.2239 77.7468C71.2675 77.8879 70.1168 77.2445 70.2442 75.8771C70.296 75.3226 70.5856 74.7731 71.454 74.5572Z" fill="#00A3FF"/>
<path fill-rule="evenodd" clip-rule="evenodd" d="M77.9431 74.5572C78.3679 74.4326 78.7671 74.3799 79.0429 74.4473C79.3051 74.5114 80.0447 75.1484 80.1423 75.5471C80.5314 77.1272 79.0631 78.0222 77.9426 77.7468C77.6782 77.6817 76.928 76.9897 76.8428 76.6469C76.6118 75.7139 76.962 74.8455 77.9431 74.5572Z" fill="#00A3FF"/>
<path fill-rule="evenodd" clip-rule="evenodd" d="M64.855 74.6672C65.196 74.5802 65.4398 74.4977 65.7349 74.5572C66.1207 74.6352 66.4557 75.0513 66.6148 75.2172C66.9956 75.6145 66.7958 76.9549 66.3948 77.3069C66.3224 77.3706 66.2399 77.3545 66.1748 77.4168C65.9805 77.6033 64.9769 77.7491 64.5251 77.5268C64.476 77.5025 64.4554 77.3252 64.4151 77.3069C64.366 77.2844 64.2345 77.3417 64.1951 77.3069C64.0191 77.1524 63.8033 76.6978 63.7552 76.427C63.6145 75.6291 63.922 74.9055 64.855 74.6672Z" fill="#00A3FF"/>
<path fill-rule="evenodd" clip-rule="evenodd" d="M58.366 74.7772C60.4955 74.2992 60.6582 77.4301 58.8059 77.5268C58.0044 77.5685 57.2661 77.0809 57.2661 76.097C57.2661 75.3445 57.569 74.9564 58.366 74.7772Z" fill="#00A3FF"/>
<path fill-rule="evenodd" clip-rule="evenodd" d="M51.6569 74.9972C52.3957 74.7433 53.1701 75.0682 53.3067 75.7671C53.4584 76.5429 52.9474 77.2051 52.4268 77.3069C51.036 77.5786 50.1758 75.5059 51.6569 74.9972Z" fill="#00A3FF"/>
<path fill-rule="evenodd" clip-rule="evenodd" d="M45.3878 75.2172C45.7251 75.1567 46.144 75.2891 46.2677 75.4371C46.5033 75.719 46.4556 76.6176 46.1577 76.8669C45.8741 77.1043 45.0533 77.1455 44.7279 76.7569C44.5355 76.5269 44.48 75.7176 44.7279 75.4371C44.8618 75.2854 45.1404 75.2616 45.3878 75.2172Z" fill="#00A3FF"/>
<path fill-rule="evenodd" clip-rule="evenodd" d="M68.3745 77.7468C68.4162 77.7408 68.473 77.6203 68.5945 77.6368C69.3442 77.7399 69.7323 78.0474 70.0243 78.5167C70.0857 78.6152 70.34 79.0029 70.3542 79.2866C70.4216 80.6485 68.874 81.5472 67.7146 80.8263C67.3503 80.6 66.8347 80.1504 66.8347 79.3965C66.8347 79.1825 66.9397 78.6839 67.0547 78.5167C67.0822 78.4768 67.2586 78.4415 67.2747 78.4067C67.4332 78.0552 67.6843 77.8435 68.3745 77.7468Z" fill="#00A3FF"/>
<path fill-rule="evenodd" clip-rule="evenodd" d="M74.6436 77.7468C75.1619 77.5992 75.4066 77.5552 75.7434 77.6368C76.0844 77.7193 76.8382 78.3879 76.9532 78.9566C77.1879 80.1183 76.297 81.3813 74.8636 81.1563C74.1257 81.0404 73.2459 80.3864 73.4338 79.0666C73.4993 78.6079 73.8467 77.9741 74.6436 77.7468Z" fill="#00A3FF"/>
<path fill-rule="evenodd" clip-rule="evenodd" d="M61.7755 77.8568C64.0521 77.5062 64.1992 81.0463 61.9954 81.0463C61.2805 81.0463 60.3457 80.523 60.3457 79.3965C60.3457 78.535 60.8695 77.9961 61.7755 77.8568Z" fill="#00A3FF"/>
<path fill-rule="evenodd" clip-rule="evenodd" d="M54.9564 78.0767C55.7827 77.8371 56.6837 78.2119 56.8262 79.0666C56.9641 79.8961 56.4192 80.7109 55.7263 80.8263C55.0018 80.9469 53.8951 80.6407 53.9666 79.2866C53.9945 78.7614 54.1838 78.3008 54.9564 78.0767Z" fill="#00A3FF"/>
<path fill-rule="evenodd" clip-rule="evenodd" d="M48.4674 78.2967C49.3037 78.0657 49.9522 78.4608 50.0072 79.2866C50.1208 80.9954 47.6874 81.0115 47.5875 79.5065C47.5582 79.062 47.6274 78.5286 48.4674 78.2967Z" fill="#00A3FF"/>
<path fill-rule="evenodd" clip-rule="evenodd" d="M71.454 80.9363C72.6698 80.6522 73.9012 81.4533 73.7637 82.916C73.6918 83.68 72.9535 84.4632 72.2239 84.5658C71.317 84.6932 69.8785 84.0273 70.0243 82.4761C70.0852 81.8277 70.4921 81.1609 71.454 80.9363Z" fill="#00A3FF"/>
<path fill-rule="evenodd" clip-rule="evenodd" d="M77.9431 80.9363C78.4747 80.7966 78.6914 80.7516 79.0429 80.8263C79.0319 80.8241 79.3193 80.9097 79.3729 80.9363C79.4219 80.9606 79.4426 81.138 79.4829 81.1563C80.0608 81.4166 80.5635 82.3038 80.3628 83.246C80.2642 83.7066 79.6089 84.4398 79.0429 84.5658C78.6245 84.6593 77.906 84.602 77.6132 84.4558C77.5646 84.4315 77.5435 84.2542 77.5032 84.2359C77.2456 84.1199 77.1077 83.9618 76.8433 83.6859C76.7003 83.537 76.484 82.7992 76.6233 82.1462C76.7062 81.7571 77.1384 81.1476 77.9431 80.9363Z" fill="#00A3FF"/>
<path fill-rule="evenodd" clip-rule="evenodd" d="M64.855 81.0463C66.574 80.6449 67.4346 82.2034 66.9447 83.466C66.7128 84.0645 65.6712 84.7908 64.5251 84.3458C63.4115 83.9137 62.9876 81.4826 64.855 81.0463Z" fill="#00A3FF"/>
<path fill-rule="evenodd" clip-rule="evenodd" d="M58.4759 81.1563C60.7526 80.8057 60.8997 84.3458 58.6959 84.3458C57.9815 84.3458 57.0461 83.8225 57.0461 82.6961C57.0461 81.8345 57.5704 81.2956 58.4759 81.1563Z" fill="#00A3FF"/>
<path fill-rule="evenodd" clip-rule="evenodd" d="M51.7669 81.3763C53.8965 80.8983 54.0592 84.0292 52.2069 84.1259C51.4053 84.1676 50.6671 83.68 50.6671 82.6961C50.6671 81.9441 50.97 81.5554 51.7669 81.3763Z" fill="#00A3FF"/>
<path fill-rule="evenodd" clip-rule="evenodd" d="M45.3878 81.5962C45.5817 81.5697 45.8731 81.5133 46.0477 81.5962C46.1614 81.6503 46.5688 82.0829 46.5977 82.1462C46.7292 82.4372 46.6893 83.0434 46.5977 83.246C46.5679 83.3129 46.0248 83.8065 46.0477 83.7959C45.0002 84.2693 44.0039 82.9939 44.398 82.1462C44.4007 82.1402 44.8695 81.6301 44.9479 81.5962C45.062 81.5467 45.2632 81.6132 45.3878 81.5962Z" fill="#00A3FF"/>
</g>
<path d="M71 77V91.6104C71 94.2348 69.8543 96.7287 67.8633 98.4385L62.2627 103.247C58.8903 106.143 53.9095 106.143 50.5371 103.247L44.9365 98.4385C42.9455 96.7287 41.7998 94.2348 41.7998 91.6104V77H71Z" fill="white" stroke="#2F3237" stroke-width="2"/>
<path d="M50.3999 102.4H62.3999L59.8141 104.986C58.9086 105.891 57.6805 106.4 56.3999 106.4C55.1193 106.4 53.8912 105.891 52.9857 104.986L50.3999 102.4Z" fill="#2F3237"/>
<path d="M11.2002 43.7388H19.4611M102.4 43.7388H94.1393" stroke="#006FFF" stroke-width="2"/>
<path d="M56.8003 -1.86133L56.8003 6.39954" stroke="#006FFF" stroke-width="2"/>
<path d="M23.4771 10.4155L29.5138 16.4523M90.1232 77.0616L84.0864 71.0249" stroke="#006FFF" stroke-width="2"/>
<path d="M90.123 10.4155L84.0863 16.4523M23.4769 77.0616L29.5137 71.0248" stroke="#006FFF" stroke-width="2"/>
<path d="M58.8001 77.2002L41.6001 84.0002" stroke="#2F3237" stroke-width="2"/>
<path d="M71.2001 79.2002L41.6001 91.2002" stroke="#2F3237" stroke-width="2"/>
<path d="M60.0002 90.3999L43.2002 97.5999" stroke="#2F3237" stroke-width="2"/>
<path d="M54.1981 76C54.1981 64.4263 54.3019 54.6486 48.7968 46.0681C46.3505 42.2552 40.3717 39.1061 36.7478 42.4762C35.4918 43.6443 35.6994 46.7959 38.2828 47.0215C49.6752 48.0163 64.1569 37.5656 62.9231 25.7144C62.621 22.8123 59.6357 23.8924 58.1913 26.7343C56.2754 30.5035 56.1371 35.3418 57.1756 39.4609C59.0038 46.7118 68.1924 51.3839 74.5566 46.0681C75.5283 45.2564 77.0526 42.6217 74.9259 41.7335C72.9572 40.9113 69.5685 42.182 68.0012 43.2079C57.2355 50.2552 57.8754 64.8 57.8754 76" stroke="white" stroke-width="2" stroke-linejoin="round"/>
</g>
<defs>
<clipPath id="clip0_2058_804">
<rect width="112" height="112" fill="white"/>
</clipPath>
</defs>
</svg>
