<svg width="113" height="90" viewBox="0 0 113 90" fill="none" xmlns="http://www.w3.org/2000/svg">
<path d="M61.365 4.21593L56.893 0C56.4975 0.233702 56.1084 0.463745 55.7253 0.69029C44.927 7.07564 38.829 10.6815 25.1729 15.0915L7.72331 55.7039C1.15968 70.9802 -2.12213 78.6183 1.49593 84.0693C1.63509 84.279 1.78127 84.4806 1.93465 84.6744C33.2131 65.0505 48.2321 47.7816 61.365 4.21593Z" fill="#6BEABB"/>
<path d="M67.9257 89.5203H51.2157C58.989 73.6761 62.0197 59.6772 65.5368 43.4316C67.427 34.7007 69.4576 25.3209 72.4405 14.657L83.9164 25.4757C80.7707 49.8199 77.2784 65.6072 67.9257 89.5203Z" fill="#6BEABB"/>
<path d="M106.934 89.418C102.199 89.5203 96.7741 89.5203 90.6187 89.5203H88.2527C94.6945 69.4714 97.166 56.7164 98.5917 39.3105L107.41 47.6242C109.378 49.4788 111.242 51.2364 113 52.9058C111.538 68.4778 109.972 77.9011 106.934 89.418Z" fill="#6BEABB"/>
</svg>
