<svg width="639" height="481" viewBox="0 0 639 481" fill="none" xmlns="http://www.w3.org/2000/svg">
<g clip-path="url(#clip0_2058_630)">
<path opacity="0.3" d="M0.965468 210.58H164.988" stroke="#B1B4C0" stroke-width="1.93316" stroke-miterlimit="10" stroke-linecap="round" stroke-linejoin="round"/>
<g opacity="0.3">
<path d="M56.7078 211.217L22.1091 298.357H115.658V343.213" fill="white" fill-opacity="0.3"/>
<path d="M56.7078 211.217L22.1091 298.357H115.658V343.213" stroke="#B1B4C0" stroke-width="1.93316" stroke-miterlimit="10" stroke-linecap="round" stroke-linejoin="round"/>
</g>
<g opacity="0.3">
<path d="M129.753 412.816L164.99 372.446V166.777H263.663L259.554 201.56L240.22 211.227V306.932L260.521 340.767V371.702" fill="white" fill-opacity="0.3"/>
<path d="M129.753 412.816L164.99 372.446V166.777H263.663L259.554 201.56L240.22 211.227V306.932L260.521 340.767V371.702" stroke="#B1B4C0" stroke-width="1.93316" stroke-miterlimit="10" stroke-linecap="round" stroke-linejoin="round"/>
</g>
<path opacity="0.3" d="M164.989 372.446H302.088M179.895 166.275V77.337M240.218 306.932L358.158 206.394" stroke="#B1B4C0" stroke-width="1.93316" stroke-miterlimit="10" stroke-linecap="round" stroke-linejoin="round"/>
<g opacity="0.3">
<path d="M358.158 0.966933V261.013L337.857 309.833V432.122" fill="white" fill-opacity="0.3"/>
<path d="M358.158 0.966933V261.013L337.857 309.833V432.122" stroke="#B1B4C0" stroke-width="1.93316" stroke-miterlimit="10" stroke-linecap="round" stroke-linejoin="round"/>
</g>
<g opacity="0.3">
<path d="M357.715 103.969L604.672 104.327V52.6851" fill="white" fill-opacity="0.3"/>
<path d="M357.715 103.969L604.672 104.327V52.6851" stroke="#B1B4C0" stroke-width="1.93316" stroke-miterlimit="10" stroke-linecap="round" stroke-linejoin="round"/>
</g>
<g opacity="0.3">
<path d="M462.566 387.17V157.092L524.435 107.789V59.4537" fill="white" fill-opacity="0.3"/>
<path d="M462.566 387.17V157.092L524.435 107.789V59.4537" stroke="#B1B4C0" stroke-width="1.93316" stroke-miterlimit="10" stroke-linecap="round" stroke-linejoin="round"/>
</g>
<path opacity="0.3" d="M338.341 357.405H462.438M462.438 229.48H637.539M549.153 103.903V229.112" stroke="#B1B4C0" stroke-width="1.93316" stroke-miterlimit="10" stroke-linecap="round" stroke-linejoin="round"/>
<path fill-rule="evenodd" clip-rule="evenodd" d="M201.078 362.518C201.078 362.518 211.62 347.614 212.579 339.374C213.537 331.133 207.429 326.75 201.078 326.75C194.727 326.75 188.619 331.133 189.577 339.374C190.536 347.614 201.078 362.518 201.078 362.518ZM201.078 344.634C204.253 344.634 206.828 341.965 206.828 338.672C206.828 335.38 204.253 332.711 201.078 332.711C197.902 332.711 195.328 335.38 195.328 338.672C195.328 341.965 197.902 344.634 201.078 344.634ZM57.0372 202.043C57.0372 202.043 67.5793 187.139 68.5382 178.899C69.4963 170.658 63.3886 166.275 57.0372 166.275C50.6859 166.275 44.5782 170.658 45.5362 178.899C46.4952 187.139 57.0372 202.043 57.0372 202.043ZM57.0372 184.159C60.2129 184.159 62.7873 181.49 62.7873 178.197C62.7873 174.906 60.2129 172.237 57.0372 172.237C53.8616 172.237 51.2872 174.906 51.2872 178.197C51.2872 181.49 53.8616 184.159 57.0372 184.159ZM207.845 157.574C207.845 157.574 218.387 142.671 219.346 134.43C220.304 126.189 214.196 121.806 207.845 121.806C201.494 121.806 195.386 126.189 196.344 134.43C197.303 142.671 207.845 157.574 207.845 157.574ZM207.845 139.69C211.02 139.69 213.595 137.021 213.595 133.728C213.595 130.437 211.02 127.768 207.845 127.768C204.669 127.768 202.095 130.437 202.095 133.728C202.095 137.021 204.669 139.69 207.845 139.69ZM383.787 95.7046C383.787 95.7046 394.329 80.8008 395.288 72.5605C396.246 64.3192 390.138 59.9362 383.787 59.9362C377.436 59.9362 371.328 64.3192 372.286 72.5605C373.245 80.8008 383.787 95.7046 383.787 95.7046ZM383.787 77.8204C386.963 77.8204 389.537 75.1523 389.537 71.8587C389.537 68.567 386.963 65.8979 383.787 65.8979C380.611 65.8979 378.037 68.566 378.037 71.8587C378.037 75.1513 380.611 77.8204 383.787 77.8204ZM310.317 234.912C310.317 234.912 320.859 220.008 321.818 211.768C322.776 203.526 316.668 199.143 310.317 199.143C303.965 199.143 297.858 203.526 298.816 211.768C299.775 220.008 310.317 234.912 310.317 234.912ZM310.317 217.027C313.492 217.027 316.067 214.358 316.067 211.066C316.067 207.774 313.492 205.105 310.317 205.105C307.141 205.105 304.567 207.774 304.567 211.066C304.567 214.358 307.141 217.027 310.317 217.027ZM395.388 351.884C395.388 351.884 405.93 336.98 406.889 328.74C407.847 320.499 401.739 316.116 395.388 316.116C389.036 316.116 382.929 320.499 383.887 328.74C384.846 336.98 395.388 351.884 395.388 351.884ZM395.388 334C398.563 334 401.138 331.331 401.138 328.038C401.138 324.747 398.563 322.077 395.388 322.077C392.212 322.077 389.638 324.747 389.638 328.038C389.638 331.331 392.212 334 395.388 334ZM577.13 157.574C577.13 157.574 587.672 142.671 588.631 134.43C589.589 126.189 583.481 121.806 577.13 121.806C570.779 121.806 564.671 126.189 565.629 134.43C566.588 142.671 577.13 157.574 577.13 157.574ZM577.13 139.69C580.306 139.69 582.88 137.021 582.88 133.728C582.88 130.437 580.306 127.768 577.13 127.768C573.954 127.768 571.38 130.437 571.38 133.728C571.38 137.021 573.954 139.69 577.13 139.69Z" fill="#B0B3BF"/>
</g>
<defs>
<clipPath id="clip0_2058_630">
<rect width="638.909" height="480.39" fill="white" transform="translate(0.00048835)"/>
</clipPath>
</defs>
</svg>
