<svg width="26" height="26" viewBox="0 0 26 26" fill="none" xmlns="http://www.w3.org/2000/svg">
<path fill-rule="evenodd" clip-rule="evenodd" d="M8.1249 6.5C8.1249 3.80761 10.3075 1.625 12.9999 1.625C15.6923 1.625 17.8749 3.80761 17.8749 6.5V7.9146C20.4147 9.52899 22.0999 12.3677 22.0999 15.6C22.0999 20.6258 18.0257 24.7 12.9999 24.7C7.97412 24.7 3.8999 20.6258 3.8999 15.6C3.8999 12.3677 5.58513 9.52899 8.1249 7.9146V6.5ZM15.9249 6.5V6.98029C15.007 6.66888 14.0231 6.5 12.9999 6.5C11.9767 6.5 10.9929 6.66888 10.0749 6.98029V6.5C10.0749 4.88457 11.3845 3.575 12.9999 3.575C14.6153 3.575 15.9249 4.88457 15.9249 6.5ZM15.5999 14.3C15.5999 15.5115 14.7713 16.5295 13.6499 16.8181V19.5C13.6499 19.8589 13.3588 20.15 12.9999 20.15C12.6409 20.15 12.3499 19.8589 12.3499 19.5V16.8181C11.2285 16.5295 10.3999 15.5115 10.3999 14.3C10.3999 12.8641 11.564 11.7 12.9999 11.7C14.4359 11.7 15.5999 12.8641 15.5999 14.3Z" fill="#20294C"/>
</svg>
