<svg width="26" height="26" viewBox="0 0 26 26" fill="none" xmlns="http://www.w3.org/2000/svg">
<g clip-path="url(#clip0_2058_746)">
<mask id="mask0_2058_746" style="mask-type:luminance" maskUnits="userSpaceOnUse" x="0" y="0" width="26" height="26">
<path d="M0 0H26V26H0V0Z" fill="white"/>
</mask>
<g mask="url(#mask0_2058_746)">
<path d="M24.2438 1.493C23.7644 1.01362 22.9993 0.981858 22.4885 1.42014L10.6562 11.5745C11.4816 11.8461 12.2512 12.2767 12.8554 12.8809C13.4838 13.5094 13.9339 14.2374 14.2212 15.0118L24.3166 3.24817C24.7548 2.73745 24.7231 1.97237 24.2438 1.493Z" fill="#20294C"/>
<path d="M4.09532 24.3687C5.19967 20.1512 9.38848 22.7212 11.454 20.6556C13.1364 18.9733 13.3487 15.9072 11.5885 14.147C10.2069 12.7655 7.1835 12.1789 5.08041 14.282C2.97732 16.3851 1.75684 20.1552 4.09532 24.3687Z" fill="#20294C"/>
</g>
</g>
<defs>
<clipPath id="clip0_2058_746">
<rect width="26" height="26" fill="white"/>
</clipPath>
</defs>
</svg>
