<svg width="26" height="26" viewBox="0 0 26 26" fill="none" xmlns="http://www.w3.org/2000/svg">
<path d="M14.2992 5.20039C14.2992 5.91835 13.7172 6.50039 12.9992 6.50039C12.2813 6.50039 11.6992 5.91835 11.6992 5.20039C11.6992 4.48243 12.2813 3.90039 12.9992 3.90039C13.7172 3.90039 14.2992 4.48243 14.2992 5.20039Z" fill="#20294C"/>
<path d="M13 6.5C10.8461 6.5 9.1 8.24609 9.1 10.4H7.8C7.08204 10.4 6.5 10.982 6.5 11.7C6.5 12.418 7.08202 13 7.8 13H11.7V23.4H14.3V13H18.2C18.918 13 19.5 12.418 19.5 11.7C19.5 10.982 18.918 10.4 18.2 10.4H16.9C16.9 8.24609 15.154 6.5 13 6.5Z" fill="#20294C"/>
<path d="M2.41709 5.2144C1.70634 5.31593 1.21247 5.97442 1.31401 6.68519L2.59171 15.6291L1.95742 21.972C1.88597 22.6865 2.40721 23.3235 3.12161 23.395C3.83601 23.4663 4.47308 22.9452 4.54451 22.2307L4.94745 18.2013H7.80095V22.1013C7.80095 22.8193 8.38298 23.4013 9.10095 23.4013C9.81892 23.4013 10.4009 22.8193 10.4009 22.1013V18.2013C10.4009 16.7653 9.23689 15.6013 7.80095 15.6013H5.2011L5.20096 15.5836C5.20014 15.5172 5.19425 15.4518 5.18363 15.3877L3.88787 6.31748C3.78634 5.60673 3.12785 5.11286 2.41709 5.2144Z" fill="#20294C"/>
<path d="M23.5854 5.2144C24.2962 5.31593 24.7901 5.97442 24.6886 6.68519L23.4108 15.6291L24.0451 21.972C24.1166 22.6865 23.5953 23.3235 22.8809 23.395C22.1664 23.4663 21.5294 22.9452 21.4579 22.2307L21.0551 18.2013H18.2016V22.1013C18.2016 22.8193 17.6196 23.4013 16.9016 23.4013C16.1836 23.4013 15.6016 22.8193 15.6016 22.1013V18.2013C15.6016 16.7653 16.7656 15.6013 18.2016 15.6013H20.8014L20.8016 15.5838C20.8023 15.5173 20.8082 15.4518 20.8189 15.3877L22.1147 6.31748C22.2162 5.60673 22.8747 5.11286 23.5854 5.2144Z" fill="#20294C"/>
</svg>
