<svg width="28" height="10" viewBox="0 0 28 10" fill="none" xmlns="http://www.w3.org/2000/svg">
<g clip-path="url(#clip0_2058_1001)">
<path fill-rule="evenodd" clip-rule="evenodd" d="M21.253 0.335961C21.0769 0.534013 20.9866 0.793864 21.002 1.05843C21.0174 1.323 21.1372 1.57064 21.335 1.74696L23.87 4.00096H1C0.734784 4.00096 0.48043 4.10632 0.292893 4.29385C0.105357 4.48139 0 4.73574 0 5.00096C0 5.26618 0.105357 5.52053 0.292893 5.70807C0.48043 5.8956 0.734784 6.00096 1 6.00096H23.87L21.336 8.25296C21.235 8.33935 21.1523 8.445 21.0926 8.56373C21.0329 8.68247 20.9975 8.8119 20.9884 8.94449C20.9793 9.07707 20.9967 9.21013 21.0397 9.33589C21.0826 9.46166 21.1502 9.57761 21.2384 9.67696C21.3267 9.77631 21.4339 9.85708 21.5537 9.91454C21.6735 9.972 21.8036 10.005 21.9363 10.0116C22.069 10.0182 22.2018 9.99831 22.3267 9.95304C22.4516 9.90777 22.5663 9.83805 22.664 9.74796L27.164 5.74796C27.2694 5.65415 27.3538 5.53908 27.4115 5.41034C27.4693 5.28159 27.4992 5.14207 27.4992 5.00096C27.4992 4.85985 27.4693 4.72033 27.4115 4.59159C27.3538 4.46284 27.2694 4.34778 27.164 4.25396L22.664 0.252961C22.4658 0.0769953 22.2059 -0.0131033 21.9413 0.00245961C21.6768 0.0180225 21.4292 0.137974 21.253 0.335961Z" fill="white"/>
</g>
<defs>
<clipPath id="clip0_2058_1001">
<rect width="28" height="10" fill="white"/>
</clipPath>
</defs>
</svg>
