<svg width="24" height="24" viewBox="0 0 24 24" fill="none" xmlns="http://www.w3.org/2000/svg">
<path fill-rule="evenodd" clip-rule="evenodd" d="M12.0002 22.8002C14.8645 22.8002 17.6116 21.6623 19.6369 19.6369C21.6623 17.6116 22.8002 14.8645 22.8002 12.0002C22.8002 9.13586 21.6623 6.38883 19.6369 4.36344C17.6116 2.33805 14.8645 1.2002 12.0002 1.2002C9.13586 1.2002 6.38883 2.33805 4.36344 4.36344C2.33805 6.38883 1.2002 9.13586 1.2002 12.0002C1.2002 14.8645 2.33805 17.6116 4.36344 19.6369C6.38883 21.6623 9.13586 22.8002 12.0002 22.8002ZM7.7642 14.4362L11.3642 18.0362C11.5329 18.2047 11.7617 18.2994 12.0002 18.2994C12.2387 18.2994 12.4674 18.2047 12.6362 18.0362L16.2362 14.4362C16.3246 14.3538 16.3955 14.2544 16.4447 14.144C16.4939 14.0336 16.5204 13.9145 16.5225 13.7936C16.5246 13.6728 16.5024 13.5527 16.4571 13.4407C16.4119 13.3286 16.3445 13.2268 16.259 13.1413C16.1736 13.0559 16.0718 12.9885 15.9597 12.9432C15.8476 12.898 15.7276 12.8758 15.6068 12.8779C15.4859 12.88 15.3667 12.9065 15.2564 12.9557C15.146 13.0048 15.0466 13.0758 14.9642 13.1642L12.9002 15.2282V7.2002C12.9002 6.9615 12.8054 6.73258 12.6366 6.5638C12.4678 6.39502 12.2389 6.3002 12.0002 6.3002C11.7615 6.3002 11.5326 6.39502 11.3638 6.5638C11.195 6.73258 11.1002 6.9615 11.1002 7.2002V15.2282L9.0362 13.1642C8.86559 13.0052 8.63993 12.9187 8.40677 12.9228C8.17361 12.9269 7.95114 13.0214 7.78625 13.1862C7.62135 13.3511 7.5269 13.5736 7.52279 13.8068C7.51867 14.0399 7.60522 14.2656 7.7642 14.4362Z" fill="#20294C"/>
</svg>
