<svg width="24" height="24" viewBox="0 0 24 24" fill="none" xmlns="http://www.w3.org/2000/svg">
<path fill-rule="evenodd" clip-rule="evenodd" d="M22.8641 12.0341C22.8641 18.0151 18.0151 22.8641 12.0341 22.8641C6.0521 22.8641 1.2041 18.0151 1.2041 12.0341C1.2041 6.0521 6.0521 1.2041 12.0341 1.2041C18.0151 1.2041 22.8641 6.0521 22.8641 12.0341ZM13.2371 16.5701C13.2371 17.1701 12.9061 17.5151 12.3351 17.5151C11.7701 17.5151 11.4321 17.1691 11.4321 16.5701V8.7571H8.0521C7.5591 8.7571 7.2201 8.4611 7.2201 7.9891C7.2201 7.5161 7.5521 7.2201 8.0521 7.2201H16.9251C17.4251 7.2201 17.7571 7.5161 17.7571 7.9891C17.7571 8.4611 17.4181 8.7571 16.9251 8.7571H13.2371V16.5701Z" fill="#20294C"/>
</svg>
