<svg width="30" height="30" viewBox="0 0 30 30" fill="none" xmlns="http://www.w3.org/2000/svg">
<path d="M22.6992 10.3135C22.4072 10.5955 22.0812 11.1335 21.8242 11.8695C21.9092 12.0325 21.9872 12.2165 22.0562 12.4255C22.7962 14.6485 22.5452 17.4605 21.8942 19.3215C21.9312 19.4195 21.9702 19.5145 22.0102 19.6065C22.2322 20.1115 22.4742 20.4675 22.7002 20.6855C22.9202 20.8995 23.0782 20.9365 23.1662 20.9365C23.2562 20.9365 23.4122 20.8995 23.6342 20.6855C23.8592 20.4675 24.1012 20.1115 24.3232 19.6055C24.7642 18.5975 25.0582 17.1455 25.0582 15.4995C25.0582 13.8525 24.7642 12.4015 24.3232 11.3925C24.1012 10.8875 23.8592 10.5315 23.6332 10.3135C23.4132 10.0995 23.2552 10.0625 23.1672 10.0625C23.0772 10.0625 22.9212 10.0995 22.6992 10.3135Z" fill="#20294C"/>
<path fill-rule="evenodd" clip-rule="evenodd" d="M16.8 15.3752C16.8 11.4562 17.511 7.95223 18.625 5.46223C19.183 4.21523 19.822 3.26323 20.485 2.63623C21.321 1.84623 22.64 1.79623 23.581 2.46223C26.151 4.28223 28 9.37523 28 15.3752C28 22.9002 25.09 29.0002 21.5 29.0002C18.448 29.0002 15.246 28.4102 12.109 27.8332C10.572 27.5502 9.052 27.2702 7.571 27.0632C4.421 26.2462 2 21.3242 2 15.3762C2 9.42623 4.421 4.50623 7.571 3.68623L14.071 2.65923C14.873 2.56123 15.691 2.42823 16.514 2.29423C17.254 2.17423 17.792 3.04623 17.439 3.69323C17.257 4.02423 17.086 4.37323 16.924 4.73523C15.684 7.50523 14.942 11.2672 14.942 15.3752C14.942 15.8772 15.358 16.2842 15.87 16.2842C15.9907 16.2857 16.1105 16.2634 16.2225 16.2185C16.3346 16.1737 16.4367 16.1072 16.5231 16.0229C16.6094 15.9385 16.6783 15.838 16.7259 15.7271C16.7734 15.6161 16.7986 15.4969 16.8 15.3762V15.3752ZM26.143 15.3752C26.143 18.8862 24.896 21.7332 23.357 21.7332C21.819 21.7332 20.571 18.8862 20.571 15.3752C20.571 11.8632 21.819 9.01623 23.357 9.01623C24.896 9.01623 26.143 11.8632 26.143 15.3752Z" fill="#20294C"/>
</svg>
