<svg width="26" height="26" viewBox="0 0 26 26" fill="none" xmlns="http://www.w3.org/2000/svg">
<path d="M13.0326 24.6992C13.0176 24.6885 13.0014 24.6739 12.984 24.6594C12.7056 24.3099 10.984 22.1258 9.22981 19.3244C8.70313 18.4321 8.36179 17.7357 8.42793 17.5555C8.59955 17.0873 11.6579 16.8308 12.5996 17.2554C12.886 17.3843 12.8785 17.5544 12.8785 17.6542C12.8785 18.0827 12.8579 19.2328 12.8579 19.2328C12.8579 19.4704 13.0482 19.6631 13.2835 19.6624C13.5188 19.6624 13.7084 19.4685 13.7078 19.2302L13.7035 16.3656C13.7035 16.1166 13.4345 16.0547 13.3846 16.0445C12.8928 16.0414 11.895 16.0388 10.8229 16.0388C8.45788 16.0388 7.92871 16.1375 7.52809 15.8707C6.65757 15.2944 5.23417 11.4092 5.20109 9.22262C5.15429 6.13868 6.95772 3.46867 9.49877 2.14599C10.5596 1.60504 11.7577 1.2998 13.0245 1.2998C17.0458 1.2998 20.3581 4.37363 20.7986 8.32903C20.7986 8.33219 20.7986 8.33661 20.7993 8.33977C20.8804 9.29592 15.6766 9.49877 14.6476 9.22072C14.4897 9.17838 14.4498 9.01407 14.4498 8.94392C14.4492 8.21717 14.4441 6.1709 14.4441 6.1709C14.4436 5.93267 14.2526 5.74055 14.0173 5.74055C13.7827 5.74055 13.5924 5.93455 13.5924 6.1728L13.6017 9.94178C13.6093 10.1794 13.8058 10.2432 13.8602 10.2546C14.4454 10.2546 15.8139 10.254 17.0888 10.254C18.8117 10.254 19.5356 10.4562 20.0173 10.8271C20.3375 11.0742 20.461 11.5476 20.3531 12.1631C19.3865 17.6359 13.2648 24.4173 13.0345 24.6998L13.0326 24.6992Z" fill="#20294C"/>
</svg>
