<svg width="26" height="26" viewBox="0 0 26 26" fill="none" xmlns="http://www.w3.org/2000/svg">
<path fill-rule="evenodd" clip-rule="evenodd" d="M6.17511 2.6001C4.83344 2.6001 3.78315 3.75517 3.91035 5.09079L4.29576 9.13759C4.41962 10.4381 4.99135 11.6507 5.90652 12.5716L6.98787 22.0334C7.11919 23.1825 8.09166 24.0501 9.24815 24.0501H15.8426C16.9992 24.0501 17.9716 23.1825 18.1029 22.0334L19.1843 12.5716C20.0995 11.6507 20.6712 10.4381 20.7951 9.13759L21.1804 5.09079C21.3077 3.75517 20.2574 2.6001 18.9157 2.6001H6.17511ZM7.76312 11.6433L8.92526 21.812C8.94402 21.9762 9.08295 22.1001 9.24815 22.1001H11.5704V13.3133C11.564 12.0622 10.5479 11.0501 9.29543 11.0501C8.70587 11.0501 8.16784 11.2745 7.76312 11.6433ZM15.8426 22.1001H13.5204V13.3251C13.5204 12.0686 14.539 11.0501 15.7954 11.0501C16.3851 11.0501 16.9228 11.274 17.3277 11.6433L16.1655 21.812C16.1468 21.9762 16.0078 22.1001 15.8426 22.1001Z" fill="#20294C"/>
</svg>
