<svg width="26" height="26" viewBox="0 0 26 26" fill="none" xmlns="http://www.w3.org/2000/svg">
<path fill-rule="evenodd" clip-rule="evenodd" d="M17.6653 6.57422L4.59945 13.6913C4.67403 15.0393 4.07857 16.3757 2.95703 17.2122L6.36624 23.4709C7.67731 22.9824 9.12311 23.207 10.2151 24.0008L23.281 16.8837C23.2064 15.5357 23.8018 14.1993 24.9233 13.3628L21.5142 7.10405C20.2032 7.59259 18.7573 7.36799 17.6653 6.57422ZM11.3628 16.6913C10.5875 15.2679 11.1129 13.4854 12.5363 12.7101C13.9598 11.9347 15.7422 12.4601 16.5177 13.8836C17.293 15.3069 16.7676 17.0895 15.3441 17.8648C13.9206 18.6401 12.1382 18.1148 11.3628 16.6913ZM11.9747 11.6791C9.98192 12.7646 9.24639 15.2601 10.3319 17.2529C11.4174 19.2458 13.9128 19.9814 15.9057 18.8957C17.8985 17.8102 18.6341 15.3147 17.5486 13.322C16.4631 11.3292 13.9676 10.5936 11.9747 11.6791Z" fill="#20294C"/>
<path d="M2.19284 12.8427L12.6213 2.23063C13.8971 2.67214 15.3456 2.46618 16.4577 1.61719L20.8674 5.95066C20.0281 6.19476 19.126 6.02775 18.4316 5.52297L17.767 5.03985L12.8272 7.73058C11.4017 7.28334 9.78214 7.63214 8.66305 8.77093C8.15421 9.28873 7.81048 9.90712 7.63129 10.5608L3.25794 12.943L3.30334 13.7634C3.35446 14.6873 2.94512 15.601 2.18171 16.1704L1.8125 16.4457C2.49821 15.3583 2.6238 14.0211 2.19284 12.8427Z" fill="#20294C"/>
</svg>
