<svg width="26" height="26" viewBox="0 0 26 26" fill="none" xmlns="http://www.w3.org/2000/svg">
<path fill-rule="evenodd" clip-rule="evenodd" d="M2.37062 23.1642C-0.0799923 20.4212 1.6432 0.0833154 7.87509 6.41564C10.396 8.97716 15.2732 8.97716 17.7941 6.41564C24.026 0.0833154 25.7492 20.4212 23.2985 23.1642C22.657 23.8824 21.3799 24.1199 20.6346 23.5102C19.9947 22.9865 19.366 22.4242 18.7461 21.8694C14.1144 17.7261 11.5549 17.7261 6.92327 21.8694C6.30326 22.424 5.67449 22.9865 5.0346 23.5102C4.28936 24.1199 3.01217 23.8824 2.37062 23.1642ZM7.6346 10.5101V12.4601H9.5846V13.7602H7.6346V15.7102H6.3346V13.7602H4.3846V12.4601H6.3346V10.5101H7.6346ZM19.3346 10.5101C19.3346 11.2281 18.7526 11.8101 18.0346 11.8101C17.3166 11.8101 16.7346 11.2281 16.7346 10.5101C16.7346 9.79215 17.3166 9.21012 18.0346 9.21012C18.7526 9.21012 19.3346 9.79215 19.3346 10.5101ZM15.4346 14.4102C16.1526 14.4102 16.7346 13.828 16.7346 13.1102C16.7346 12.3922 16.1526 11.8101 15.4346 11.8101C14.7166 11.8101 14.1346 12.3922 14.1346 13.1102C14.1346 13.828 14.7166 14.4102 15.4346 14.4102ZM21.9346 13.1102C21.9346 13.828 21.3526 14.4102 20.6346 14.4102C19.9166 14.4102 19.3346 13.828 19.3346 13.1102C19.3346 12.3922 19.9166 11.8101 20.6346 11.8101C21.3526 11.8101 21.9346 12.3922 21.9346 13.1102ZM18.0346 17.0102C18.7526 17.0102 19.3346 16.428 19.3346 15.7102C19.3346 14.9922 18.7526 14.4102 18.0346 14.4102C17.3166 14.4102 16.7346 14.9922 16.7346 15.7102C16.7346 16.428 17.3166 17.0102 18.0346 17.0102Z" fill="#20294C"/>
</svg>
