<svg width="26" height="26" viewBox="0 0 26 26" fill="none" xmlns="http://www.w3.org/2000/svg">
<path fill-rule="evenodd" clip-rule="evenodd" d="M8.6387 8.19444C7.61258 6.41715 8.24413 4.13149 10.0493 3.08927C11.8545 2.04706 14.1497 2.64294 15.1758 4.42023L15.6403 5.22475C16.0218 5.00449 16.5053 5.08009 16.8013 5.40629L21.493 10.5758C21.6456 10.7193 21.7868 10.8747 21.915 11.0407L24.9086 14.3393C25.4061 14.8875 25.2705 15.7551 24.6292 16.1252L10.6555 24.193C10.4359 24.3199 10.1586 24.1777 10.1333 23.9253C10.0548 23.139 9.71193 22.4027 9.16074 21.8364L4.73828 15.6833V13.0833L9.33275 15.9112L8.5506 10.1244C8.48943 9.67189 8.70774 9.22727 9.10319 8.99896L8.6387 8.19444ZM13.8684 5.17508L14.3329 5.97959L10.4106 8.24412L9.94612 7.4396C9.33045 6.37322 9.70938 5.00183 10.7925 4.3765C11.8756 3.75116 13.2527 4.1087 13.8684 5.17508Z" fill="#20294C"/>
<path d="M2.15315 13.4621C1.73962 13.4478 1.36204 13.1756 1.30741 12.7655C1.26415 12.4406 1.43492 12.1159 1.75121 12.0303C2.50407 11.8264 3.41407 11.8909 4.06739 12.7565V14.5846C3.56286 13.7019 2.79249 13.4842 2.15315 13.4621Z" fill="#20294C"/>
<path d="M4.77647 16.9613L4.06558 15.5699C3.07782 15.2116 2.01627 16.0443 1.80676 16.8529C1.7867 16.9302 1.79033 17.0111 1.80608 17.0895C1.92212 17.6669 2.63775 17.8058 3.06504 17.4003C3.52218 16.9668 4.07337 16.6981 4.77647 16.9613Z" fill="#20294C"/>
</svg>
